<?xml version="1.0" encoding="UTF-8" ?>
<!DOCTYPE svg PUBLIC "-//W3C//DTD SVG 1.1//EN" "http://www.w3.org/Graphics/SVG/1.1/DTD/svg11.dtd">
<svg width="413pt" height="460pt" viewBox="0 0 413 460" version="1.1" xmlns="http://www.w3.org/2000/svg">
<g id="#ffffffff">
</g>
<g id="#0193c9ff">
<path fill="#0193c9" opacity="1.00" d=" M 228.48 0.00 L 229.68 0.00 L 229.61 0.66 C 229.80 2.28 230.11 3.88 230.56 5.44 C 257.50 83.52 284.23 161.68 311.19 239.76 C 313.41 239.38 315.63 239.02 317.86 238.67 C 316.01 239.64 314.07 240.44 312.26 241.49 C 313.27 247.80 316.16 253.63 317.97 259.74 C 325.05 258.73 332.07 257.43 339.09 256.07 C 341.14 255.63 343.25 255.63 345.34 255.92 C 336.79 258.78 327.85 260.24 319.11 262.38 C 323.51 276.65 328.79 290.63 333.51 304.80 C 348.98 349.88 364.52 394.94 379.99 440.02 C 382.19 446.16 384.36 452.31 386.11 458.59 C 367.07 459.10 348.02 458.36 328.99 459.15 C 307.67 458.73 286.35 459.43 265.03 459.25 C 256.90 459.34 248.74 458.94 240.67 460.00 L 36.13 460.00 C 54.61 402.34 73.56 344.82 92.31 287.25 C 97.08 271.74 102.78 256.51 107.01 240.85 C 88.01 238.48 69.17 234.66 50.00 233.88 C 46.69 233.79 43.38 233.83 40.08 233.46 C 45.72 232.81 51.35 233.93 56.99 233.89 C 63.27 234.39 69.57 234.55 75.82 235.28 C 86.65 235.96 97.39 237.47 108.17 238.67 C 109.09 235.64 110.04 232.62 110.94 229.58 C 84.53 224.35 57.96 219.47 31.09 217.43 C 58.34 217.66 85.33 222.06 112.24 225.93 C 125.24 186.33 137.97 146.64 150.99 107.06 C 158.36 128.51 165.91 149.91 173.03 171.45 C 189.06 121.81 205.37 72.27 221.44 22.64 C 223.87 15.12 226.54 7.67 228.48 0.00 M 212.90 85.09 C 210.80 90.95 208.76 96.83 206.92 102.78 C 201.61 116.27 197.44 130.16 192.44 143.75 C 191.97 143.90 191.01 144.21 190.53 144.36 C 190.44 145.53 191.50 146.63 190.85 147.82 C 185.18 164.36 179.62 180.95 173.45 197.32 C 171.48 204.67 168.47 211.66 166.14 218.88 C 165.86 218.87 165.31 218.83 165.04 218.81 C 163.87 215.08 162.42 211.46 161.09 207.80 C 159.43 202.28 156.77 197.13 155.04 191.62 C 152.65 184.16 149.49 176.97 146.87 169.59 C 139.86 187.33 134.42 205.63 127.67 223.47 C 127.05 225.10 126.50 226.75 125.98 228.42 C 148.05 232.46 169.87 237.68 191.80 242.35 C 203.07 244.55 214.52 245.70 225.97 246.45 C 241.53 246.76 257.15 247.05 272.64 245.26 C 271.66 240.67 269.47 236.52 267.80 232.18 C 263.33 218.38 257.44 205.08 253.05 191.25 C 251.42 187.86 250.01 184.38 248.86 180.81 C 246.35 172.98 243.24 165.37 240.30 157.70 C 237.58 150.70 235.72 143.39 232.47 136.60 C 226.51 119.61 219.95 102.83 213.92 85.86 C 213.67 85.67 213.16 85.28 212.90 85.09 M 124.79 232.74 C 123.79 235.32 122.83 237.92 121.88 240.52 C 144.03 244.09 166.13 248.06 188.02 253.04 C 204.83 256.82 221.65 261.04 238.87 262.46 C 252.52 264.04 266.31 263.90 280.02 263.41 C 279.70 263.08 279.06 262.42 278.74 262.09 C 277.35 257.46 275.79 252.87 273.77 248.47 C 240.69 253.18 206.51 252.93 174.06 244.37 C 160.10 240.63 146.03 237.32 131.95 234.03 C 129.68 233.50 127.35 233.33 125.03 233.23 C 125.77 232.98 126.51 232.72 127.25 232.46 C 126.64 232.53 125.40 232.67 124.79 232.74 M 120.66 243.68 C 120.06 245.38 119.47 247.10 118.88 248.81 C 117.14 254.05 114.98 259.14 113.24 264.39 C 109.01 278.63 103.07 292.29 98.78 306.52 C 91.92 324.95 85.90 343.68 79.06 362.13 C 75.40 372.46 72.23 382.97 68.21 393.18 C 64.14 404.75 60.45 416.46 56.01 427.89 C 53.75 435.61 50.21 442.91 48.58 450.82 C 49.85 450.81 51.12 450.80 52.39 450.80 C 61.51 424.35 70.05 397.69 79.20 371.25 C 85.04 370.20 91.09 371.50 97.02 371.22 C 103.83 371.64 111.37 370.88 117.36 374.77 C 120.17 376.46 120.64 379.98 121.28 382.90 C 118.58 400.43 114.81 417.76 111.26 435.13 C 109.88 440.34 108.09 445.56 104.24 449.51 C 103.56 449.78 102.19 450.31 101.51 450.58 C 106.59 450.82 111.71 451.18 116.78 450.61 C 121.49 424.32 126.24 398.02 130.74 371.69 C 141.34 372.06 151.98 371.45 162.56 372.25 C 162.41 376.78 161.62 381.25 161.40 385.78 C 156.86 386.18 152.30 386.00 147.75 386.24 C 147.72 390.80 147.31 395.36 146.33 399.81 C 150.47 400.39 154.66 400.30 158.83 400.19 C 158.74 405.29 158.45 410.38 158.31 415.47 C 153.71 415.61 149.12 415.56 144.52 415.54 C 143.97 421.89 143.32 428.24 142.33 434.55 C 147.58 434.87 152.84 434.46 158.08 434.77 C 158.32 435.02 158.79 435.51 159.02 435.76 C 158.52 440.75 158.23 445.77 157.47 450.73 C 159.82 450.80 162.19 450.84 164.55 450.84 C 164.72 450.14 165.06 448.73 165.24 448.02 C 166.29 422.73 168.29 397.48 169.47 372.20 C 176.67 372.38 183.88 372.27 191.08 372.43 C 196.15 372.62 201.54 373.16 205.83 376.15 C 208.51 377.87 209.56 381.16 210.16 384.13 C 211.28 391.37 211.82 398.72 211.34 406.04 C 211.17 410.40 207.91 414.16 203.84 415.47 C 198.86 417.13 193.51 416.49 188.36 416.52 C 188.23 427.96 188.30 439.40 188.28 450.84 C 202.42 450.79 216.57 451.01 230.71 450.71 C 228.29 429.36 226.48 407.95 224.17 386.59 C 220.33 386.63 216.49 386.58 212.66 386.43 C 212.74 382.08 212.12 377.78 211.72 373.46 C 212.68 372.08 214.55 372.83 215.95 372.63 C 228.04 372.62 240.10 372.94 252.18 373.38 C 252.65 377.90 253.63 382.34 254.56 386.78 C 250.82 386.90 247.08 386.89 243.35 386.75 C 244.99 399.24 247.15 411.66 249.11 424.09 C 250.17 432.96 252.18 441.70 252.80 450.61 C 256.88 450.85 260.98 451.01 265.06 450.75 C 275.33 449.60 285.68 450.48 295.99 450.18 C 295.65 447.38 295.08 444.62 294.32 441.92 C 288.22 419.13 282.31 396.30 276.40 373.47 C 282.37 373.50 288.35 373.58 294.33 373.58 C 295.48 377.40 296.63 381.22 298.01 384.97 C 299.43 390.10 301.18 395.12 302.70 400.22 C 304.51 400.26 306.32 400.29 308.14 400.32 C 306.21 391.21 302.25 382.69 300.05 373.65 C 306.02 373.95 312.04 373.38 317.97 374.37 C 320.00 381.35 322.94 388.02 325.50 394.82 C 330.27 406.46 334.33 418.37 339.09 430.02 C 341.74 436.96 344.15 444.04 347.59 450.65 C 348.19 446.38 345.80 442.65 344.28 438.87 C 336.48 417.44 328.67 396.01 320.56 374.69 C 318.04 366.32 314.15 358.44 311.66 350.06 C 306.12 336.24 301.49 322.08 295.98 308.27 C 291.46 294.56 285.61 281.32 281.26 267.55 C 265.56 268.51 249.74 269.12 234.06 267.47 C 214.20 266.25 195.22 259.97 175.95 255.55 C 157.61 251.22 139.24 246.93 120.66 243.68 M 95.79 382.25 C 90.47 399.39 86.29 416.86 81.26 434.09 C 80.83 435.58 80.42 437.08 80.03 438.59 C 83.61 438.59 87.61 436.99 88.52 433.16 C 92.73 419.93 95.30 406.25 99.14 392.92 C 100.03 389.92 100.63 386.84 100.85 383.72 C 99.16 383.21 97.48 382.71 95.79 382.25 M 188.39 383.42 C 188.32 390.13 188.30 396.86 188.40 403.58 C 190.55 403.43 193.05 403.23 194.29 401.16 C 194.77 395.57 194.98 389.81 193.54 384.33 C 191.83 383.99 190.11 383.68 188.39 383.42 M 307.86 416.21 C 310.78 426.17 313.91 436.06 317.26 445.88 C 317.45 447.01 317.64 448.13 317.83 449.27 C 318.38 449.51 319.47 450.00 320.02 450.25 C 321.63 450.24 323.25 450.24 324.87 450.25 C 321.75 438.79 317.49 427.66 314.01 416.30 C 311.96 416.25 309.91 416.23 307.86 416.21 Z" />
<path fill="#0193c9" opacity="1.00" d=" M 254.22 408.64 C 262.60 408.76 270.98 408.68 279.36 408.76 C 280.70 413.67 281.65 418.67 282.87 423.60 C 274.10 423.66 265.32 423.61 256.54 423.56 C 255.78 418.58 254.76 413.65 254.22 408.64 Z" />
</g>
</svg>
