<?xml version="1.0" encoding="UTF-8" standalone="no"?>
<!DOCTYPE svg PUBLIC "-//W3C//DTD SVG 1.1//EN" "http://www.w3.org/Graphics/SVG/1.1/DTD/svg11.dtd">
<svg width="100%" height="100%" viewBox="0 0 18 18" version="1.1" xmlns="http://www.w3.org/2000/svg" xmlns:xlink="http://www.w3.org/1999/xlink" xml:space="preserve" style="fill-rule:evenodd;clip-rule:evenodd;stroke-linejoin:round;stroke-miterlimit:1.41421;">
    <g transform="matrix(1,0,0,1,-3,-3)">
        <path d="M5,3L19,3C20.097,3 21,3.903 21,5L21,19C21,20.097 20.097,21 19,21L5,21C3.903,21 3,20.097 3,19L3,5C3,3.903 3.903,3 5,3M18,5L15.5,5C13.58,5 12,6.58 12,8.5L12,11L10,11L10,14L12,14L12,21L15,21L15,14L18,14L18,11L15,11L15,9C15,8.451 15.451,8 16,8L18,8L18,5Z" style="fill:white;fill-rule:nonzero;"/>
    </g>
</svg>
