<?xml version="1.0" encoding="UTF-8" ?>
<!DOCTYPE svg PUBLIC "-//W3C//DTD SVG 1.1//EN" "http://www.w3.org/Graphics/SVG/1.1/DTD/svg11.dtd">
<svg width="141pt" height="141pt" viewBox="0 0 141 141" version="1.1" xmlns="http://www.w3.org/2000/svg">
<g id="#c23137ff">
<path fill="#c23137" opacity="1.00" d=" M 83.54 0.00 L 87.23 0.00 C 90.31 2.41 93.58 4.59 96.97 6.54 C 97.53 10.35 97.95 14.17 98.18 18.01 C 97.37 19.01 95.94 19.70 95.66 21.04 C 95.51 26.24 98.52 31.49 96.42 36.59 C 87.61 32.91 77.60 31.66 69.79 25.89 C 65.50 22.24 61.28 18.50 56.85 15.01 C 53.16 11.99 49.46 8.99 45.60 6.17 C 58.09 3.19 71.03 2.88 83.54 0.00 M 76.58 6.66 C 70.60 7.72 64.51 8.18 58.67 9.92 C 63.27 14.48 68.27 18.69 73.63 22.33 C 79.97 25.80 87.17 27.25 93.93 29.70 C 93.95 23.67 94.04 17.48 92.15 11.69 C 89.33 6.06 82.09 5.46 76.58 6.66 Z" />
<path fill="#c23137" opacity="1.00" d=" M 46.94 115.37 C 46.35 110.92 43.20 105.29 46.88 101.50 C 54.88 104.81 63.88 105.92 71.11 110.92 C 76.01 114.92 80.88 118.96 85.88 122.85 C 89.23 125.57 92.65 128.20 96.17 130.70 C 86.38 132.97 76.31 133.55 66.41 135.22 C 62.38 135.72 58.33 136.80 54.24 136.45 C 50.36 135.11 47.37 132.09 43.82 130.11 C 43.53 128.10 43.25 126.09 43.05 124.07 C 42.94 122.80 42.85 121.52 42.78 120.25 C 42.85 119.73 42.97 118.68 43.04 118.15 C 44.47 117.87 45.90 117.58 47.32 117.26 C 48.17 120.77 48.61 124.49 50.43 127.67 C 52.89 131.15 57.68 130.85 61.43 130.40 C 68.39 129.39 75.38 128.45 82.32 127.30 C 78.68 122.35 73.57 118.80 68.44 115.55 C 61.96 111.64 54.49 109.94 47.24 108.06 C 47.13 110.50 46.95 112.93 46.94 115.37 Z" />
</g>
<g id="#db4b51ff">
<path fill="#db4b51" opacity="1.00" d=" M 76.58 6.66 C 82.09 5.46 89.33 6.06 92.15 11.69 C 94.04 17.48 93.95 23.67 93.93 29.70 C 87.17 27.25 79.97 25.80 73.63 22.33 C 68.27 18.69 63.27 14.48 58.67 9.92 C 64.51 8.18 70.60 7.72 76.58 6.66 Z" />
<path fill="#db4b51" opacity="1.00" d=" M 15.03 46.25 C 20.29 45.31 25.65 45.06 30.99 45.21 C 29.20 53.67 26.70 62.34 21.18 69.19 C 18.08 73.22 14.93 77.22 11.45 80.94 C 10.14 72.99 8.64 65.04 8.07 56.99 C 7.58 52.52 10.06 46.77 15.03 46.25 Z" />
</g>
<g id="#468db1ff">
<path fill="#468db1" opacity="1.00" d=" M 96.97 6.54 C 105.65 11.81 113.30 18.57 121.57 24.45 C 124.71 26.93 128.39 28.90 130.87 32.10 C 132.63 35.73 132.81 39.85 133.69 43.73 C 132.91 44.75 132.12 45.76 131.32 46.76 C 129.33 49.22 127.20 51.56 125.17 53.99 C 124.18 52.92 123.20 51.85 122.22 50.78 C 124.41 47.09 128.31 43.42 127.32 38.75 C 126.52 34.24 122.66 31.33 119.18 28.81 C 112.51 24.10 106.15 18.96 99.45 14.28 C 99.19 15.34 98.94 16.39 98.70 17.45 L 98.18 18.01 C 97.95 14.17 97.53 10.35 96.97 6.54 Z" />
</g>
<g id="#4791b5ff">
<path fill="#4791b5" opacity="1.00" d=" M 35.22 8.46 C 38.64 7.53 42.16 7.00 45.60 6.17 C 49.46 8.99 53.16 11.99 56.85 15.01 C 56.10 16.06 55.34 17.09 54.58 18.13 C 50.88 15.89 47.54 12.67 43.23 11.71 C 36.88 11.78 32.08 16.73 28.59 21.52 C 24.25 27.63 19.31 33.30 15.22 39.60 C 16.71 39.82 18.20 40.02 19.69 40.26 L 20.32 40.69 C 16.24 40.99 12.18 41.41 8.14 42.02 C 14.23 32.65 21.64 24.23 28.09 15.11 C 30.12 12.61 31.82 9.24 35.22 8.46 Z" />
<path fill="#4791b5" opacity="1.00" d=" M 74.94 109.25 C 84.00 105.74 92.04 99.23 101.88 98.02 C 103.32 97.92 104.76 97.82 106.21 97.74 C 103.95 100.76 100.95 103.16 97.40 104.47 C 91.33 106.87 85.42 109.64 79.76 112.90 C 78.13 111.72 76.53 110.49 74.94 109.25 Z" />
</g>
<g id="#60abcfff">
<path fill="#60abcf" opacity="1.00" d=" M 43.23 11.71 C 47.54 12.67 50.88 15.89 54.58 18.13 C 57.11 19.84 59.60 21.60 62.08 23.38 C 53.41 29.49 42.45 31.71 34.58 38.98 C 29.61 39.37 24.69 40.28 19.69 40.26 C 18.20 40.02 16.71 39.82 15.22 39.60 C 19.31 33.30 24.25 27.63 28.59 21.52 C 32.08 16.73 36.88 11.78 43.23 11.71 Z" />
<path fill="#60abcf" opacity="1.00" d=" M 99.45 14.28 C 106.15 18.96 112.51 24.10 119.18 28.81 C 122.66 31.33 126.52 34.24 127.32 38.75 C 128.31 43.42 124.41 47.09 122.22 50.78 C 120.08 53.91 117.96 57.05 115.64 60.04 C 110.49 50.26 106.14 40.05 100.13 30.74 C 99.56 26.32 98.97 21.90 98.70 17.45 C 98.94 16.39 99.19 15.34 99.45 14.28 Z" />
<path fill="#60abcf" opacity="1.00" d=" M 19.98 85.32 C 21.83 82.49 23.64 79.63 25.67 76.93 C 28.61 83.71 32.36 90.10 34.92 97.04 C 36.11 100.40 38.43 103.15 41.14 105.39 C 41.55 110.36 42.33 115.29 42.78 120.25 C 42.85 121.52 42.94 122.80 43.05 124.07 C 35.17 118.63 27.68 112.66 20.00 106.94 C 16.55 104.41 13.44 100.55 13.68 96.05 C 14.86 92.02 17.86 88.87 19.98 85.32 Z" />
<path fill="#60abcf" opacity="1.00" d=" M 106.21 97.74 C 109.99 97.40 113.73 96.74 117.50 96.32 C 119.58 96.10 121.66 95.95 123.74 95.83 C 124.23 95.84 125.21 95.85 125.70 95.86 C 120.97 103.57 114.89 110.31 109.69 117.69 C 107.33 120.58 104.99 124.43 100.91 124.84 C 96.81 124.81 93.45 122.06 90.10 120.03 C 86.62 117.70 83.15 115.36 79.76 112.90 C 85.42 109.64 91.33 106.87 97.40 104.47 C 100.95 103.16 103.95 100.76 106.21 97.74 Z" />
</g>
<g id="#376f8bff">
<path fill="#376f8b" opacity="1.00" d=" M 56.85 15.01 C 61.28 18.50 65.50 22.24 69.79 25.89 C 68.91 26.27 68.03 26.65 67.15 27.03 C 65.47 25.80 63.77 24.60 62.08 23.38 C 59.60 21.60 57.11 19.84 54.58 18.13 C 55.34 17.09 56.10 16.06 56.85 15.01 Z" />
</g>
<g id="#882226ff">
<path fill="#882226" opacity="1.00" d=" M 98.18 18.01 L 98.70 17.45 C 98.97 21.90 99.56 26.32 100.13 30.74 C 100.36 33.18 100.41 35.64 100.65 38.09 C 99.24 37.58 97.83 37.10 96.42 36.59 C 98.52 31.49 95.51 26.24 95.66 21.04 C 95.94 19.70 97.37 19.01 98.18 18.01 Z" />
</g>
<g id="#468fb3ff">
<path fill="#468fb3" opacity="1.00" d=" M 62.08 23.38 C 63.77 24.60 65.47 25.80 67.15 27.03 C 57.99 30.71 49.80 37.00 40.00 38.87 C 38.19 38.94 36.39 38.92 34.58 38.98 C 42.45 31.71 53.41 29.49 62.08 23.38 Z" />
<path fill="#468fb3" opacity="1.00" d=" M 25.67 76.93 C 26.85 75.39 28.08 73.89 29.32 72.40 C 32.99 81.36 39.38 89.34 40.89 99.07 C 41.02 101.18 41.04 103.28 41.14 105.39 C 38.43 103.15 36.11 100.40 34.92 97.04 C 32.36 90.10 28.61 83.71 25.67 76.93 Z" />
<path fill="#468fb3" opacity="1.00" d=" M 123.74 95.83 C 126.89 95.40 130.01 94.80 133.14 94.25 C 127.72 102.93 120.91 110.62 114.89 118.88 C 112.39 122.00 110.38 125.65 107.17 128.12 C 103.71 129.69 99.83 129.82 96.17 130.70 C 92.65 128.20 89.23 125.57 85.88 122.85 C 87.28 121.91 88.69 120.97 90.10 120.03 C 93.45 122.06 96.81 124.81 100.91 124.84 C 104.99 124.43 107.33 120.58 109.69 117.69 C 114.89 110.31 120.97 103.57 125.70 95.86 C 125.21 95.85 124.23 95.84 123.74 95.83 Z" />
</g>
<g id="#4893b8ff">
<path fill="#4893b8" opacity="1.00" d=" M 100.13 30.74 C 106.14 40.05 110.49 50.26 115.64 60.04 C 114.53 61.45 113.38 62.82 112.23 64.19 C 109.53 59.05 107.00 53.81 104.35 48.64 C 102.64 45.32 101.15 41.83 100.65 38.09 C 100.41 35.64 100.36 33.18 100.13 30.74 Z" />
<path fill="#4893b8" opacity="1.00" d=" M 8.01 93.27 C 10.98 89.85 13.88 86.37 16.68 82.81 C 17.78 83.65 18.88 84.48 19.98 85.32 C 17.86 88.87 14.86 92.02 13.68 96.05 C 13.44 100.55 16.55 104.41 20.00 106.94 C 27.68 112.66 35.17 118.63 43.05 124.07 C 43.25 126.09 43.53 128.10 43.82 130.11 C 35.30 124.83 27.69 118.27 19.55 112.46 C 16.59 110.14 13.14 108.28 10.79 105.28 C 9.25 101.44 9.12 97.23 8.01 93.27 Z" />
</g>
<g id="#842125ff">
<path fill="#842125" opacity="1.00" d=" M 19.69 40.26 C 24.69 40.28 29.61 39.37 34.58 38.98 C 36.39 38.92 38.19 38.94 40.00 38.87 C 39.46 40.00 38.92 41.13 38.42 42.27 C 33.45 42.53 28.51 43.08 23.55 43.51 C 22.49 42.55 21.43 41.59 20.32 40.69 L 19.69 40.26 Z" />
<path fill="#842125" opacity="1.00" d=" M 102.96 94.81 C 106.91 94.11 110.85 93.34 114.81 92.73 C 115.51 92.78 116.92 92.89 117.63 92.94 C 117.58 94.07 117.54 95.19 117.50 96.32 C 113.73 96.74 109.99 97.40 106.21 97.74 C 104.76 97.82 103.32 97.92 101.88 98.02 C 102.24 96.95 102.60 95.88 102.96 94.81 Z" />
<path fill="#842125" opacity="1.00" d=" M 40.89 99.07 C 42.88 99.91 44.86 100.75 46.88 101.50 C 43.20 105.29 46.35 110.92 46.94 115.37 C 47.03 115.85 47.23 116.79 47.32 117.26 C 45.90 117.58 44.47 117.87 43.04 118.15 C 42.97 118.68 42.85 119.73 42.78 120.25 C 42.33 115.29 41.55 110.36 41.14 105.39 C 41.04 103.28 41.02 101.18 40.89 99.07 Z" />
</g>
<g id="#c33237ff">
<path fill="#c33237" opacity="1.00" d=" M 8.14 42.02 C 12.18 41.41 16.24 40.99 20.32 40.69 C 21.43 41.59 22.49 42.55 23.55 43.51 C 28.51 43.08 33.45 42.53 38.42 42.27 C 34.76 51.09 33.54 61.07 27.85 68.94 C 24.11 73.55 20.27 78.08 16.68 82.81 C 13.88 86.37 10.98 89.85 8.01 93.27 C 5.14 81.25 4.36 68.86 2.32 56.70 C 0.81 50.91 5.45 46.55 8.14 42.02 M 15.03 46.25 C 10.06 46.77 7.58 52.52 8.07 56.99 C 8.64 65.04 10.14 72.99 11.45 80.94 C 14.93 77.22 18.08 73.22 21.18 69.19 C 26.70 62.34 29.20 53.67 30.99 45.21 C 25.65 45.06 20.29 45.31 15.03 46.25 Z" />
</g>
<g id="#b12d32ff">
<path fill="#b12d32" opacity="1.00" d=" M 133.69 43.73 C 135.97 54.41 136.98 65.30 138.76 76.06 C 139.06 78.82 139.84 81.66 139.22 84.42 C 137.70 87.98 135.09 90.93 133.14 94.25 C 130.01 94.80 126.89 95.40 123.74 95.83 C 121.66 95.95 119.58 96.10 117.50 96.32 C 117.54 95.19 117.58 94.07 117.63 92.94 C 116.92 92.89 115.51 92.78 114.81 92.73 C 120.36 91.46 126.11 91.11 131.58 89.53 C 134.59 88.71 136.33 85.68 136.68 82.75 C 137.18 78.58 136.29 74.41 135.68 70.30 C 134.30 62.44 133.99 54.35 131.32 46.76 C 132.12 45.76 132.91 44.75 133.69 43.73 Z" />
</g>
<g id="#c93339ff">
<path fill="#c93339" opacity="1.00" d=" M 131.32 46.76 C 133.99 54.35 134.30 62.44 135.68 70.30 C 136.29 74.41 137.18 78.58 136.68 82.75 C 136.33 85.68 134.59 88.71 131.58 89.53 C 126.11 91.11 120.36 91.46 114.81 92.73 C 110.85 93.34 106.91 94.11 102.96 94.81 C 104.96 89.12 106.81 83.38 108.67 77.64 C 109.88 73.93 111.34 70.23 113.83 67.18 C 117.70 62.87 121.54 58.52 125.17 53.99 C 127.20 51.56 129.33 49.22 131.32 46.76 M 114.93 76.88 C 113.17 81.25 111.87 85.89 112.25 90.65 C 117.68 90.83 123.36 90.67 128.38 88.35 C 132.06 86.43 133.05 81.84 132.81 78.02 C 132.43 71.44 131.56 64.62 128.11 58.86 C 123.19 64.41 117.44 69.69 114.93 76.88 Z" />
</g>
<g id="#346a84ff">
<path fill="#346a84" opacity="1.00" d=" M 122.22 50.78 C 123.20 51.85 124.18 52.92 125.17 53.99 C 121.54 58.52 117.70 62.87 113.83 67.18 C 113.29 66.19 112.75 65.19 112.23 64.19 C 113.38 62.82 114.53 61.45 115.64 60.04 C 117.96 57.05 120.08 53.91 122.22 50.78 Z" />
<path fill="#346a84" opacity="1.00" d=" M 16.68 82.81 C 20.27 78.08 24.11 73.55 27.85 68.94 C 28.33 70.10 28.81 71.25 29.32 72.40 C 28.08 73.89 26.85 75.39 25.67 76.93 C 23.64 79.63 21.83 82.49 19.98 85.32 C 18.88 84.48 17.78 83.65 16.68 82.81 Z" />
</g>
<g id="#db4c52ff">
<path fill="#db4c52" opacity="1.00" d=" M 114.93 76.88 C 117.44 69.69 123.19 64.41 128.11 58.86 C 131.56 64.62 132.43 71.44 132.81 78.02 C 133.05 81.84 132.06 86.43 128.38 88.35 C 123.36 90.67 117.68 90.83 112.25 90.65 C 111.87 85.89 113.17 81.25 114.93 76.88 Z" />
</g>
<g id="#db4a50ff">
<path fill="#db4a50" opacity="1.00" d=" M 47.24 108.06 C 54.49 109.94 61.96 111.64 68.44 115.55 C 73.57 118.80 78.68 122.35 82.32 127.30 C 75.38 128.45 68.39 129.39 61.43 130.40 C 57.68 130.85 52.89 131.15 50.43 127.67 C 48.61 124.49 48.17 120.77 47.32 117.26 C 47.23 116.79 47.03 115.85 46.94 115.37 C 46.95 112.93 47.13 110.50 47.24 108.06 Z" />
</g>
<g id="#32667fff">
<path fill="#32667f" opacity="1.00" d=" M 71.11 110.92 C 72.39 110.38 73.66 109.81 74.94 109.25 C 76.53 110.49 78.13 111.72 79.76 112.90 C 83.15 115.36 86.62 117.70 90.10 120.03 C 88.69 120.97 87.28 121.91 85.88 122.85 C 80.88 118.96 76.01 114.92 71.11 110.92 Z" />
</g>
</svg>
