<?xml version="1.0" encoding="UTF-8" standalone="no"?>
<!DOCTYPE svg PUBLIC "-//W3C//DTD SVG 1.1//EN" "http://www.w3.org/Graphics/SVG/1.1/DTD/svg11.dtd">
<svg width="100%" height="100%" viewBox="0 0 24 19" version="1.1" xmlns="http://www.w3.org/2000/svg" xmlns:xlink="http://www.w3.org/1999/xlink" xml:space="preserve" style="fill-rule:evenodd;clip-rule:evenodd;stroke-linejoin:round;stroke-miterlimit:1.41421;">
    <g transform="matrix(1,0,0,1,0,-3)">
        <path d="M12,3C7.46,3 3.34,4.78 0.29,7.67C0.11,7.85 0,8.1 0,8.38C0,8.66 0.11,8.91 0.29,9.09L2.77,11.57C2.95,11.75 3.2,11.86 3.5,11.86C3.75,11.86 4,11.75 4.18,11.58C4.97,10.84 5.87,10.22 6.84,9.73C7.17,9.57 7.4,9.23 7.4,8.83L7.4,5.73C8.85,5.25 10.39,5 12,5C13.59,5 15.14,5.25 16.59,5.72L16.59,8.82C16.59,9.21 16.82,9.56 17.15,9.72C18.13,10.21 19,10.84 19.82,11.57C20,11.75 20.25,11.85 20.5,11.85C20.8,11.85 21.05,11.74 21.23,11.56L23.71,9.08C23.89,8.9 24,8.65 24,8.37C24,8.09 23.88,7.85 23.7,7.67C20.65,4.78 16.53,3 12,3M9,7L9,10C9,10 3,15 3,18L3,22L21,22L21,18C21,15 15,10 15,10L15,7L13,7L13,9L11,9L11,7L9,7M12,12C14.194,12 16,13.806 16,16C16,18.194 14.194,20 12,20C9.806,20 8,18.194 8,16C8,13.806 9.806,12 12,12M12,13.5C10.629,13.5 9.5,14.629 9.5,16C9.5,17.371 10.629,18.5 12,18.5C13.371,18.5 14.5,17.371 14.5,16C14.5,14.629 13.371,13.5 12,13.5Z" style="fill:white;fill-rule:nonzero;"/>
    </g>
</svg>
